<?xml version="1.0" standalone="no"?>
<!DOCTYPE svg PUBLIC "-//W3C//DTD SVG 20010904//EN"
 "http://www.w3.org/TR/2001/REC-SVG-20010904/DTD/svg10.dtd">
<svg version="1.0" xmlns="http://www.w3.org/2000/svg"
 width="1600.000000pt" height="1200.000000pt" viewBox="0 0 1600.000000 1200.000000"
 preserveAspectRatio="xMidYMid meet">

<g transform="translate(0.000000,1200.000000) scale(0.100000,-0.100000)"
fill="#000000" stroke="none">
<path d="M7790 8891 c-325 -72 -593 -266 -749 -543 l-32 -56 -92 -4 c-115 -5
-171 -32 -214 -106 l-28 -47 -3 -222 c-5 -334 11 -396 119 -451 38 -20 56 -22
142 -20 l97 3 3 270 c3 261 4 273 30 358 72 232 211 419 409 547 476 308 1100
162 1390 -325 164 -274 178 -623 39 -921 -119 -252 -300 -412 -579 -508 -97
-34 -105 -35 -132 -21 -21 11 -63 15 -155 15 -120 0 -127 -1 -150 -25 -16 -15
-25 -36 -25 -55 0 -19 9 -40 25 -55 23 -24 29 -25 155 -25 126 0 132 1 155 25
14 13 25 28 25 33 0 5 39 22 88 37 106 33 243 100 325 159 131 93 260 253 333
410 l35 76 82 0 c110 0 150 13 202 64 61 62 67 99 63 391 -3 226 -4 242 -25
282 -43 80 -113 112 -243 113 l-66 0 -38 66 c-150 255 -376 428 -682 520 -78
23 -110 27 -254 30 -134 3 -181 0 -250 -15z"/>
<path d="M7594 7991 c-134 -82 -90 -284 65 -299 155 -15 242 171 128 274 -17
16 -26 22 -19 14 30 -35 -1 -110 -47 -110 -27 0 -71 38 -71 61 0 30 18 59 43
69 18 7 13 9 -23 9 -28 1 -57 -6 -76 -18z"/>
<path d="M8260 7987 c-126 -84 -83 -278 65 -294 148 -17 243 151 146 259 l-27
31 4 -36 c4 -39 -23 -77 -57 -77 -28 0 -71 39 -71 64 0 30 26 64 53 69 12 2
-1 5 -29 6 -38 1 -60 -5 -84 -22z"/>
<path d="M7790 7274 c0 -55 3 -64 35 -101 49 -57 106 -83 185 -83 78 0 134 25
184 81 32 35 36 45 36 96 l0 58 -30 -37 c-100 -122 -291 -115 -386 13 l-24 33
0 -60z"/>
<path d="M7701 3875 c-218 -49 -367 -198 -415 -412 -22 -97 -22 -496 -1 -595
57 -273 295 -442 595 -425 249 15 438 146 501 348 22 70 24 120 7 137 -16 16
-130 16 -150 0 -8 -7 -26 -44 -39 -82 -49 -142 -155 -215 -326 -224 -157 -8
-258 32 -333 131 -70 92 -75 120 -75 412 0 292 5 320 75 412 75 99 176 139
333 131 171 -9 277 -82 326 -224 13 -38 31 -75 39 -81 20 -17 134 -17 150 -1
28 28 -2 161 -56 245 -62 97 -170 176 -292 214 -87 27 -252 34 -339 14z"/>
<path d="M8627 3872 c-16 -17 -17 -80 -17 -699 0 -646 1 -681 18 -696 26 -23
113 -23 141 1 20 16 20 27 23 352 3 330 3 336 27 383 47 94 139 147 257 147
122 0 209 -52 256 -155 22 -48 23 -60 26 -380 4 -380 0 -365 89 -365 40 0 58
5 73 20 19 19 20 33 20 338 0 352 -6 399 -62 504 -78 147 -256 228 -442 201
-85 -12 -145 -38 -204 -89 l-42 -36 0 231 c0 226 0 230 -22 245 -32 23 -120
21 -141 -2z"/>
<path d="M10956 3874 c-13 -13 -16 -45 -16 -190 l0 -174 -85 0 c-104 0 -125
-14 -125 -85 0 -71 21 -85 125 -85 l85 0 0 -309 c0 -284 2 -314 21 -376 15
-50 31 -78 63 -109 59 -60 115 -77 262 -83 114 -5 123 -4 143 16 29 29 29 103
1 131 -17 17 -33 20 -111 20 -114 0 -154 16 -180 74 -17 37 -19 71 -19 339 l0
297 135 0 c160 0 175 8 175 85 0 77 -15 85 -175 85 l-135 0 0 170 c0 157 -2
172 -20 190 -26 26 -120 28 -144 4z"/>
<path d="M4694 3856 c-18 -14 -19 -33 -19 -691 0 -773 -9 -705 93 -705 101 0
92 -48 92 511 0 304 4 488 9 484 6 -3 78 -139 162 -301 84 -163 163 -309 177
-325 22 -27 29 -29 92 -29 50 0 73 5 88 18 11 9 91 154 178 322 86 168 161
309 165 314 5 6 9 -204 9 -475 0 -558 -7 -519 93 -519 44 0 62 5 77 20 20 20
20 33 20 685 0 652 0 665 -20 685 -28 28 -127 28 -161 1 -14 -11 -116 -196
-234 -425 -115 -223 -213 -402 -217 -398 -4 4 -97 183 -208 397 -122 235 -213
401 -231 418 -25 23 -38 27 -87 27 -34 0 -66 -6 -78 -14z"/>
<path d="M10075 3516 c-117 -29 -210 -90 -255 -168 -53 -94 -34 -138 60 -138
52 0 54 1 109 60 65 70 108 90 189 90 124 0 211 -58 233 -155 6 -29 9 -59 7
-67 -4 -9 -64 -23 -179 -42 -264 -42 -375 -86 -455 -179 -70 -83 -84 -229 -30
-321 60 -102 157 -149 311 -150 138 -1 254 39 323 111 l32 34 0 -49 c0 -64 19
-82 88 -82 39 0 57 5 73 21 20 20 20 27 17 387 -4 360 -4 368 -27 425 -48 115
-147 194 -278 222 -81 17 -150 18 -218 1z m342 -623 c-16 -168 -125 -269 -303
-281 -67 -4 -88 -1 -127 16 -109 48 -116 166 -13 227 64 37 115 52 271 79 197
34 179 38 172 -41z"/>
<path d="M6148 3499 c-10 -5 -18 -19 -18 -30 0 -11 90 -219 200 -462 l201
-443 -101 -219 c-96 -208 -100 -219 -85 -241 13 -21 24 -24 74 -24 42 0 64 5
78 18 24 20 633 1341 633 1371 0 28 -29 41 -93 41 -39 0 -58 -5 -70 -18 -9 -9
-86 -170 -172 -357 -86 -187 -160 -343 -163 -347 -4 -4 -79 150 -166 342 -87
192 -166 356 -176 365 -19 17 -115 20 -142 4z"/>
</g>
</svg>

